# Blender v2.92.0 OBJ File: ''
# www.blender.org
mtllib fixedNose.mtl
o nose
v -0.356936 -2.278978 1.031060
v -0.230796 -2.128542 1.327226
v -0.382904 -2.000597 1.216199
v -0.497303 -2.072618 0.927611
v -0.248059 -1.967669 1.746142
v -0.424250 -1.870165 1.593874
v -0.610755 -1.604311 1.980135
v -0.325401 -1.617006 2.252267
v -0.411872 -1.155062 2.486360
v -0.765330 -1.217714 2.191321
v -1.129694 -1.296679 1.768310
v -0.961384 -1.556185 1.677287
v -1.654235 -1.439836 1.073655
v -1.347152 -1.643480 1.087892
v 0.000000 -2.186968 1.372869
v 0.000000 -2.343859 1.135340
v 0.000000 -1.128008 2.610868
v 0.000000 -1.618944 2.347704
v 0.000000 -2.006350 1.803901
v -0.820072 -2.078783 0.679781
v -0.874430 -2.316545 0.700487
v -1.311499 -1.942537 0.593626
v -1.523885 -2.166933 0.429669
v -1.774479 -1.730150 0.470736
v -1.889641 -1.828905 0.280096
v -1.985222 -1.257478 0.360615
v -2.008897 -1.397051 0.118181
v -1.772406 -1.076830 0.867856
v -1.836319 -0.792085 0.537590
v -1.886653 -0.705400 0.077704
v -0.454800 -0.689333 2.325401
v -0.816133 -0.779436 2.049945
v 0.000000 -0.652575 2.436496
v -1.211013 -0.886705 1.601118
v -1.130938 -0.460985 1.234409
v -0.797377 -0.287386 1.728260
v -0.449198 -0.195849 1.989574
v 0.000000 -0.167605 2.077396
v -1.091334 0.001570 0.827163
v -0.731917 0.285536 1.304388
v -0.426791 0.425734 1.592505
v 0.000000 0.461637 1.686386
v -0.396515 1.795347 0.829336
v 0.000000 1.867689 0.955011
v 0.000000 2.581252 0.728511
v -0.423602 2.501006 0.618876
v -0.961399 1.350981 0.170363
v -0.693799 1.600752 0.537314
v -0.667327 2.321150 0.403796
v -0.895500 2.143034 0.168532
v 0.000000 1.185163 1.264744
v -0.390981 1.127821 1.142306
v -1.183891 1.117842 0.050398
v -1.366670 0.328947 0.085862
v -1.037161 0.615767 0.350368
v -0.723422 0.932127 0.808980
v -0.475873 -1.825472 1.048485
v -0.607868 -1.886476 0.762143
v -0.485715 -1.702913 1.380686
v -0.609597 -1.565279 1.598387
v -0.877729 -1.511583 1.416346
v -1.197020 -1.539614 0.912239
v -0.878918 -1.853090 0.544389
v -1.154350 -1.717348 0.540236
v -0.797159 -1.601198 0.547505
v -1.124841 -1.528520 0.305674
v -1.379454 -1.380693 0.291432
v -1.359732 -1.230837 0.648287
v -1.002290 -1.252489 1.171754
v -0.677557 -1.346270 1.396878
v -0.542454 -1.459368 1.228626
v -0.582392 -1.568331 0.878927
v -1.523844 -0.822511 0.329030
v -1.680929 -0.877519 0.093468
v -1.595052 -0.939226 0.105169
v -1.400538 -0.942049 0.317236
v -1.099197 -0.978090 0.679291
v -1.212444 -0.862932 0.772270
v -0.905066 -1.017076 0.971348
v -0.971247 -0.956682 1.049098
v -1.452599 -1.163759 0.117609
v -1.135583 -1.238893 0.361827
v -1.652399 -1.047411 0.108696
v -1.544461 -0.928469 0.422673
v -1.189049 -0.976198 0.958067
v -0.843780 -1.098513 1.230419
v -0.706941 -1.194887 1.096265
v -0.830986 -1.250414 0.729207
v 0.356936 -2.278978 1.031060
v 0.497303 -2.072618 0.927611
v 0.382904 -2.000597 1.216199
v 0.230796 -2.128542 1.327226
v 0.424250 -1.870165 1.593874
v 0.248059 -1.967669 1.746142
v 0.610755 -1.604311 1.980135
v 0.325401 -1.617006 2.252267
v 0.765330 -1.217714 2.191321
v 0.411872 -1.155062 2.486360
v 0.961384 -1.556185 1.677287
v 1.129694 -1.296679 1.768310
v 1.347152 -1.643480 1.087892
v 1.654235 -1.439836 1.073655
v 0.874430 -2.316545 0.700487
v 0.820072 -2.078783 0.679781
v 1.523885 -2.166933 0.429669
v 1.311499 -1.942537 0.593626
v 1.889641 -1.828905 0.280096
v 1.774479 -1.730150 0.470736
v 1.985222 -1.257478 0.360615
v 2.008897 -1.397051 0.118181
v 2.014709 -0.999712 0.007416
v 1.886653 -0.705400 0.077704
v 1.836319 -0.792085 0.537590
v 1.772406 -1.076830 0.867856
v 0.454800 -0.689333 2.325401
v 0.816133 -0.779436 2.049945
v 1.211013 -0.886705 1.601118
v 1.130938 -0.460985 1.234409
v 0.797377 -0.287386 1.728260
v 0.449198 -0.195849 1.989574
v 1.091334 0.001570 0.827163
v 0.731917 0.285536 1.304388
v 0.426791 0.425734 1.592505
v 0.396515 1.795347 0.829336
v 0.423602 2.501006 0.618876
v 0.693799 1.600752 0.537314
v 0.667327 2.321150 0.403796
v 0.390981 1.127821 1.142306
v 0.723422 0.932127 0.808980
v 1.037161 0.615767 0.350368
v 1.366670 0.328947 0.085862
v 0.607868 -1.886476 0.762143
v 0.475873 -1.825472 1.048485
v 0.485715 -1.702913 1.380686
v 0.609597 -1.565279 1.598387
v 0.877729 -1.511583 1.416346
v 1.197020 -1.539614 0.912239
v 0.878918 -1.853090 0.544389
v 1.154350 -1.717348 0.540236
v 1.124841 -1.528520 0.305674
v 0.797159 -1.601198 0.547505
v 1.379454 -1.380693 0.291432
v 1.359732 -1.230837 0.648287
v 1.002290 -1.252489 1.171754
v 0.677557 -1.346270 1.396878
v 0.542454 -1.459368 1.228626
v 0.582392 -1.568331 0.878927
v 1.523844 -0.822511 0.329030
v 1.400538 -0.942049 0.317236
v 1.595052 -0.939226 0.105169
v 1.680929 -0.877519 0.093468
v 1.212444 -0.862932 0.772270
v 1.099197 -0.978090 0.679291
v 0.905066 -1.017076 0.971348
v 0.971247 -0.956682 1.049098
v 1.452599 -1.163759 0.117609
v 1.135583 -1.238893 0.361827
v 1.652399 -1.047411 0.108696
v 1.544461 -0.928469 0.422673
v 1.189049 -0.976198 0.958067
v 0.843780 -1.098513 1.230419
v 0.706941 -1.194887 1.096265
v 0.830986 -1.250414 0.729207
v 0.668704 3.006041 0.360585
v 0.452397 3.197661 0.519726
v 0.000000 3.281935 0.596262
v -0.452397 3.197661 0.519726
v -0.668704 3.006041 0.360585
v -0.871617 2.865233 0.202848
v 0.961399 1.350981 0.170363
v 0.895500 2.143034 0.168532
v 0.871617 2.865233 0.202848
v 1.183891 1.117842 0.050398
v -1.115252 1.936766 0.014087
v 1.115252 1.936766 0.014087
v 1.079696 2.665450 0.017059
v -1.079696 2.665450 0.017059
v -2.014709 -0.999712 0.007416
vt 0.506490 0.586720
vt 0.503530 0.589180
vt 0.507520 0.589720
vt 0.510490 0.588230
vt 0.503030 0.593820
vt 0.506220 0.593530
vt 0.507420 0.600320
vt 0.503670 0.601830
vt 0.504240 0.608430
vt 0.508670 0.606880
vt 0.512790 0.604630
vt 0.511470 0.599920
vt 0.519640 0.600970
vt 0.517150 0.597100
vt 0.499090 0.589020
vt 0.499010 0.586190
vt 0.499850 0.608990
vt 0.499700 0.602730
vt 0.499370 0.594280
vt 0.514850 0.588210
vt 0.514940 0.585720
vt 0.519640 0.590260
vt 0.522760 0.585670
vt 0.524890 0.593160
vt 0.530200 0.586470
vt 0.528360 0.597510
vt 0.530957 0.587453
vt 0.522580 0.605990
vt 0.527150 0.609740
vt 0.528990 0.612111
vt 0.505050 0.614390
vt 0.510020 0.612810
vt 0.499980 0.614620
vt 0.514690 0.610840
vt 0.516940 0.617670
vt 0.510890 0.619840
vt 0.505520 0.621000
vt 0.499950 0.621010
vt 0.520170 0.624480
vt 0.511920 0.629160
vt 0.505880 0.630420
vt 0.499940 0.630180
vt 0.508750 0.657690
vt 0.500280 0.658300
vt 0.500511 0.669346
vt 0.509015 0.668355
vt 0.518900 0.654480
vt 0.513012 0.656342
vt 0.513592 0.665819
vt 0.517850 0.663459
vt 0.500000 0.642130
vt 0.507260 0.642030
vt 0.523802 0.641498
vt 0.527191 0.632522
vt 0.524290 0.632350
vt 0.514810 0.639740
vt 0.621010 0.054250
vt 0.606580 0.056540
vt 0.614060 0.060380
vt 0.626450 0.061110
vt 0.592210 0.069630
vt 0.601680 0.069850
vt 0.584780 0.092230
vt 0.597100 0.082980
vt 0.597040 0.097670
vt 0.603470 0.091780
vt 0.623800 0.102580
vt 0.624920 0.095380
vt 0.635040 0.069350
vt 0.637270 0.062810
vt 0.644510 0.082290
vt 0.637060 0.080390
vt 0.627080 0.067470
vt 0.632160 0.075210
vt 0.631570 0.080600
vt 0.625460 0.090710
vt 0.609820 0.089750
vt 0.602840 0.082740
vt 0.605540 0.073760
vt 0.616330 0.065520
vt 0.621450 0.083130
vt 0.623590 0.080540
vt 0.624300 0.079070
vt 0.620720 0.078030
vt 0.616360 0.077700
vt 0.616340 0.083100
vt 0.611610 0.079330
vt 0.612090 0.082830
vt 0.627980 0.078250
vt 0.624840 0.072550
vt 0.626290 0.081540
vt 0.623420 0.086110
vt 0.614690 0.086140
vt 0.608110 0.083820
vt 0.607880 0.077170
vt 0.616440 0.071100
vt 0.506490 0.586720
vt 0.510490 0.588230
vt 0.507520 0.589720
vt 0.503530 0.589180
vt 0.506220 0.593530
vt 0.503030 0.593820
vt 0.507420 0.600320
vt 0.503670 0.601830
vt 0.508670 0.606880
vt 0.504240 0.608430
vt 0.511470 0.599920
vt 0.512790 0.604630
vt 0.517150 0.597100
vt 0.519640 0.600970
vt 0.514940 0.585720
vt 0.514850 0.588210
vt 0.522760 0.585670
vt 0.519640 0.590260
vt 0.530200 0.586470
vt 0.524890 0.593160
vt 0.528360 0.597510
vt 0.530957 0.587453
vt 0.531561 0.588239
vt 0.535470 0.593320
vt 0.528990 0.612111
vt 0.527150 0.609740
vt 0.522580 0.605990
vt 0.505050 0.614390
vt 0.510020 0.612810
vt 0.514690 0.610840
vt 0.516940 0.617670
vt 0.510890 0.619840
vt 0.505520 0.621000
vt 0.520170 0.624480
vt 0.511920 0.629160
vt 0.505880 0.630420
vt 0.508750 0.657690
vt 0.509015 0.668355
vt 0.513012 0.656342
vt 0.513592 0.665819
vt 0.507260 0.642030
vt 0.514810 0.639740
vt 0.524290 0.632350
vt 0.527191 0.632522
vt 0.621010 0.054250
vt 0.626450 0.061110
vt 0.614060 0.060380
vt 0.606580 0.056540
vt 0.601680 0.069850
vt 0.592210 0.069630
vt 0.597100 0.082980
vt 0.584780 0.092230
vt 0.603470 0.091780
vt 0.597040 0.097670
vt 0.624920 0.095380
vt 0.623800 0.102580
vt 0.637270 0.062810
vt 0.635040 0.069350
vt 0.644510 0.082290
vt 0.637060 0.080390
vt 0.632160 0.075210
vt 0.627080 0.067470
vt 0.631570 0.080600
vt 0.625460 0.090710
vt 0.609820 0.089750
vt 0.602840 0.082740
vt 0.605540 0.073760
vt 0.616330 0.065520
vt 0.621450 0.083130
vt 0.620720 0.078030
vt 0.624300 0.079070
vt 0.623590 0.080540
vt 0.616340 0.083100
vt 0.616360 0.077700
vt 0.611610 0.079330
vt 0.612090 0.082830
vt 0.627980 0.078250
vt 0.624840 0.072550
vt 0.626290 0.081540
vt 0.623420 0.086110
vt 0.614690 0.086140
vt 0.608110 0.083820
vt 0.607880 0.077170
vt 0.616440 0.071100
vt 0.513752 0.675804
vt 0.509300 0.679830
vt 0.500760 0.681230
vt 0.509300 0.679830
vt 0.513752 0.675804
vt 0.516720 0.673120
vt 0.518900 0.654480
vt 0.517850 0.663459
vt 0.516720 0.673120
vt 0.523802 0.641498
vt 0.000000 0.000000
vt 1.000000 0.000000
vt 1.000000 1.000000
vt 0.000000 1.000000
vt 0.000000 0.000000
vt 1.000000 0.000000
vt 1.000000 1.000000
vt 0.000000 1.000000
vt 0.000000 0.000000
vt 1.000000 0.000000
vt 1.000000 1.000000
vt 0.000000 1.000000
vt 0.000000 0.000000
vt 1.000000 0.000000
vt 1.000000 1.000000
vt 0.000000 1.000000
vt 0.535470 0.593320
vt 0.531561 0.588239
vn -0.7908 -0.3884 0.4731
vn -0.6636 -0.7170 0.2134
vn -0.5255 -0.7647 0.3729
vn -0.5506 -0.5052 0.6646
vn -0.5760 -0.5644 0.5913
vn -0.5558 -0.6553 0.5116
vn -0.3013 -0.7938 0.5283
vn -0.2383 -0.4662 0.8520
vn -0.2589 -0.8981 0.3556
vn -0.2049 -0.8078 0.5527
vn -0.5672 0.1180 0.8151
vn -0.3211 -0.1064 0.9411
vn -0.4984 -0.3601 0.7886
vn -0.4860 -0.7537 0.4424
vn -0.8933 -0.2057 0.3996
vn -0.9478 0.2131 0.2372
vn -0.9053 -0.2186 0.3643
vn -0.6369 0.1843 0.7486
vn -0.2706 0.3121 0.9107
vn -0.7611 0.1137 0.6385
vn -0.8023 0.0785 0.5918
vn -0.7354 0.4830 0.4753
vn -0.7711 0.4331 0.4668
vn -0.6091 0.4505 0.6527
vn -0.2158 0.5662 0.7955
vn -0.7415 0.5626 0.3656
vn -0.8240 0.4031 0.3981
vn -0.6618 0.4571 0.5942
vn -0.2096 0.5239 0.8256
vn -0.3120 0.2741 0.9097
vn -0.8023 0.1016 0.5882
vn -0.3346 0.3936 0.8562
vn -0.2740 0.5068 0.8174
vn -0.6862 0.2147 0.6950
vn -0.7388 0.4030 0.5402
vn -0.8528 0.3448 0.3922
vn -0.7832 0.4065 0.4704
vn -0.9012 -0.1249 0.4151
vn -0.9330 -0.3550 0.0592
vn -0.8514 -0.5162 -0.0927
vn -0.0561 -0.9891 -0.1361
vn 0.3503 -0.9279 -0.1280
vn -0.5769 0.3136 0.7542
vn 0.0264 0.3812 0.9241
vn 0.7937 -0.4998 0.3468
vn -0.5791 0.1781 0.7956
vn 0.3562 0.7055 0.6127
vn 0.8967 0.4136 -0.1576
vn 0.8333 -0.0695 -0.5484
vn 0.3779 -0.5457 -0.7479
vn -0.8503 -0.4446 -0.2817
vn -0.9641 -0.2356 0.1226
vn -0.8587 -0.1146 0.4994
vn -0.5608 -0.6475 0.5160
vn -0.5699 -0.7368 0.3637
vn -0.5541 -0.7977 0.2379
vn -0.6371 -0.4277 0.6412
vn -0.0389 0.0531 0.9978
vn 0.9086 -0.1306 -0.3968
vn 0.6293 -0.6084 -0.4836
vn 0.3252 -0.7087 -0.6261
vn -0.6596 -0.7475 -0.0789
vn -0.7143 -0.6002 0.3599
vn -0.6656 -0.5375 0.5178
vn -0.7425 -0.3632 0.5629
vn -0.8409 -0.4529 0.2963
vn -0.7457 -0.6215 -0.2401
vn 0.5296 -0.2346 -0.8152
vn 0.8276 0.1140 -0.5497
vn 0.8540 0.4060 -0.3252
vn 0.3465 0.6549 0.6715
vn -0.6179 -0.1717 0.7673
vn 0.7908 -0.3884 0.4731
vn 0.6636 -0.7170 0.2134
vn 0.5255 -0.7647 0.3729
vn 0.5506 -0.5052 0.6646
vn 0.5760 -0.5644 0.5913
vn 0.5558 -0.6553 0.5116
vn 0.3013 -0.7938 0.5283
vn 0.2383 -0.4662 0.8520
vn 0.2589 -0.8981 0.3556
vn 0.2049 -0.8078 0.5527
vn 0.5672 0.1180 0.8151
vn 0.3211 -0.1064 0.9411
vn 0.4984 -0.3601 0.7886
vn 0.4860 -0.7537 0.4424
vn 0.9599 0.1821 0.2131
vn 0.9478 0.2131 0.2372
vn 0.9053 -0.2186 0.3643
vn 0.6369 0.1843 0.7486
vn 0.2706 0.3121 0.9107
vn 0.7611 0.1137 0.6385
vn 0.8023 0.0785 0.5918
vn 0.7354 0.4830 0.4753
vn 0.7711 0.4331 0.4668
vn 0.6091 0.4505 0.6527
vn 0.2158 0.5662 0.7955
vn 0.7415 0.5626 0.3656
vn 0.8240 0.4031 0.3981
vn 0.6618 0.4571 0.5942
vn 0.2096 0.5239 0.8256
vn 0.3120 0.2741 0.9097
vn 0.7316 0.1595 0.6628
vn 0.3346 0.3936 0.8562
vn 0.2740 0.5068 0.8174
vn 0.7578 0.2730 0.5927
vn 0.7388 0.4030 0.5402
vn 0.8528 0.3448 0.3922
vn 0.7832 0.4065 0.4704
vn 0.9012 -0.1249 0.4151
vn 0.9330 -0.3550 0.0592
vn 0.8514 -0.5162 -0.0927
vn 0.0561 -0.9891 -0.1361
vn -0.3503 -0.9279 -0.1280
vn 0.5769 0.3136 0.7542
vn -0.0264 0.3812 0.9241
vn -0.7937 -0.4998 0.3468
vn 0.5791 0.1781 0.7956
vn -0.3562 0.7055 0.6127
vn -0.8967 0.4136 -0.1576
vn -0.8333 -0.0695 -0.5484
vn -0.3779 -0.5457 -0.7479
vn 0.8503 -0.4446 -0.2817
vn 0.9641 -0.2356 0.1226
vn 0.8587 -0.1146 0.4994
vn 0.5608 -0.6475 0.5160
vn 0.5699 -0.7368 0.3637
vn 0.5541 -0.7977 0.2379
vn 0.6371 -0.4277 0.6412
vn 0.0389 0.0531 0.9978
vn -0.9086 -0.1306 -0.3968
vn -0.6293 -0.6084 -0.4836
vn -0.3252 -0.7087 -0.6261
vn 0.6596 -0.7475 -0.0789
vn 0.7143 -0.6002 0.3599
vn 0.6656 -0.5375 0.5178
vn 0.7425 -0.3632 0.5629
vn 0.8409 -0.4529 0.2963
vn 0.7457 -0.6215 -0.2401
vn -0.5296 -0.2346 -0.8152
vn -0.8276 0.1140 -0.5497
vn -0.8540 0.4060 -0.3252
vn -0.3465 0.6549 0.6715
vn 0.6179 -0.1717 0.7673
vn 0.6598 0.0628 0.7488
vn 0.2330 0.1542 0.9602
vn -0.2330 0.1542 0.9602
vn -0.6799 0.0155 0.7332
vn 0.8616 0.2129 0.4607
vn 0.8023 0.1016 0.5882
vn 0.6799 0.0155 0.7332
vn -0.7578 0.2730 0.5927
vn -0.7316 0.1595 0.6628
vn -0.6598 0.0628 0.7488
vn 0.6862 0.2147 0.6950
vn -0.8616 0.2129 0.4607
vn -0.5734 0.0672 0.8165
vn 0.5734 0.0672 0.8165
vn 0.6257 0.0056 0.7801
vn -0.6257 0.0056 0.7801
vn 0.8933 -0.2057 0.3996
vn -0.9599 0.1821 0.2131
usemtl lambert15SG
s off
f 1/1/1 2/2/1 3/3/1 4/4/1
f 2/2/2 5/5/2 6/6/2 3/3/2
f 7/7/3 6/6/3 5/5/3 8/8/3
f 8/8/4 9/9/4 10/10/4 7/7/4
f 10/10/5 11/11/5 12/12/5 7/7/5
f 11/11/6 13/13/6 14/14/6 12/12/6
f 15/15/7 2/2/7 1/1/7 16/16/7
f 17/17/8 9/9/8 8/8/8 18/18/8
f 15/15/9 19/19/9 5/5/9 2/2/9
f 8/8/10 5/5/10 19/19/10 18/18/10
f 4/4/11 20/20/11 21/21/11 1/1/11
f 21/21/12 20/20/12 22/22/12 23/23/12
f 23/23/13 22/22/13 24/24/13 25/25/13
f 13/13/14 24/24/14 22/22/14 14/14/14
f 24/24/15 26/26/15 27/27/15 25/25/15
f 26/26/16 28/28/16 29/29/16 30/30/16
f 13/13/17 28/28/17 26/26/17 24/24/17
f 31/31/18 32/32/18 10/10/18 9/9/18
f 17/17/19 33/33/19 31/31/19 9/9/19
f 32/32/20 34/34/20 11/11/20 10/10/20
f 34/34/21 28/28/21 13/13/21 11/11/21
f 34/34/22 35/35/22 29/29/22 28/28/22
f 32/32/23 36/36/23 35/35/23 34/34/23
f 36/36/24 32/32/24 31/31/24 37/37/24
f 33/33/25 38/38/25 37/37/25 31/31/25
f 35/35/26 39/39/26 30/30/26 29/29/26
f 36/36/27 40/40/27 39/39/27 35/35/27
f 37/37/28 41/41/28 40/40/28 36/36/28
f 38/38/29 42/42/29 41/41/29 37/37/29
f 43/43/30 44/44/30 45/45/30 46/46/30
f 47/47/31 48/48/31 49/49/31 50/50/31
f 51/51/32 44/44/32 43/43/32 52/52/32
f 52/52/33 41/41/33 42/42/33 51/51/33
f 47/47/34 53/53/34 54/54/34 55/55/34
f 56/56/35 40/40/35 41/41/35 52/52/35
f 55/55/36 39/39/36 40/40/36 56/56/36
f 30/30/37 39/39/37 55/55/37 54/54/37
f 4/57/38 3/58/38 57/59/38 58/60/38
f 3/58/39 6/61/39 59/62/39 57/59/39
f 6/61/40 7/63/40 60/64/40 59/62/40
f 7/63/41 12/65/41 61/66/41 60/64/41
f 12/65/42 14/67/42 62/68/42 61/66/42
f 58/60/43 63/69/43 20/70/43 4/57/43
f 22/71/44 20/70/44 63/69/44 64/72/44
f 22/71/45 64/72/45 62/68/45 14/67/45
f 58/60/46 65/73/46 66/74/46 63/69/46
f 64/72/47 63/69/47 66/74/47 67/75/47
f 67/75/48 68/76/48 62/68/48 64/72/48
f 61/66/49 62/68/49 68/76/49 69/77/49
f 60/64/50 61/66/50 69/77/50 70/78/50
f 59/62/51 60/64/51 70/78/51 71/79/51
f 57/59/52 59/62/52 71/79/52 72/80/52
f 58/60/53 57/59/53 72/80/53 65/73/53
f 73/81/54 74/82/54 75/83/54 76/84/54
f 76/84/55 77/85/55 78/86/55 73/81/55
f 79/87/56 80/88/56 78/86/56 77/85/56
f 81/89/57 82/90/57 76/84/57 75/83/57
f 83/91/58 81/89/58 75/83/58 74/82/58
f 73/81/59 84/92/59 83/91/59 74/82/59
f 85/93/60 84/92/60 73/81/60 78/86/60
f 86/94/61 85/93/61 78/86/61 80/88/61
f 87/95/62 86/94/62 80/88/62 79/87/62
f 88/96/63 87/95/63 79/87/63 77/85/63
f 82/90/64 88/96/64 77/85/64 76/84/64
f 65/73/65 72/80/65 88/96/65 82/90/65
f 71/79/66 87/95/66 88/96/66 72/80/66
f 70/78/67 86/94/67 87/95/67 71/79/67
f 69/77/68 85/93/68 86/94/68 70/78/68
f 68/76/69 84/92/69 85/93/69 69/77/69
f 67/75/70 83/91/70 84/92/70 68/76/70
f 66/74/71 81/89/71 83/91/71 67/75/71
f 65/73/72 82/90/72 81/89/72 66/74/72
f 89/97/73 90/98/73 91/99/73 92/100/73
f 92/100/74 91/99/74 93/101/74 94/102/74
f 95/103/75 96/104/75 94/102/75 93/101/75
f 96/104/76 95/103/76 97/105/76 98/106/76
f 97/105/77 95/103/77 99/107/77 100/108/77
f 100/108/78 99/107/78 101/109/78 102/110/78
f 15/15/79 16/16/79 89/97/79 92/100/79
f 17/17/80 18/18/80 96/104/80 98/106/80
f 15/15/81 92/100/81 94/102/81 19/19/81
f 96/104/82 18/18/82 19/19/82 94/102/82
f 90/98/83 89/97/83 103/111/83 104/112/83
f 103/111/84 105/113/84 106/114/84 104/112/84
f 105/113/85 107/115/85 108/116/85 106/114/85
f 102/110/86 101/109/86 106/114/86 108/116/86
f 109/117/87 110/118/87 111/119/87 112/120/87
f 109/117/88 112/121/88 113/122/88 114/123/88
f 102/110/89 108/116/89 109/117/89 114/123/89
f 115/124/90 98/106/90 97/105/90 116/125/90
f 17/17/91 98/106/91 115/124/91 33/33/91
f 116/125/92 97/105/92 100/108/92 117/126/92
f 117/126/93 100/108/93 102/110/93 114/123/93
f 117/126/94 114/123/94 113/122/94 118/127/94
f 116/125/95 117/126/95 118/127/95 119/128/95
f 119/128/96 120/129/96 115/124/96 116/125/96
f 33/33/97 115/124/97 120/129/97 38/38/97
f 118/127/98 113/122/98 112/121/98 121/130/98
f 119/128/99 118/127/99 121/130/99 122/131/99
f 120/129/100 119/128/100 122/131/100 123/132/100
f 38/38/101 120/129/101 123/132/101 42/42/101
f 124/133/102 125/134/102 45/45/102 44/44/102
f 126/135/103 127/136/103 125/134/103 124/133/103
f 51/51/104 128/137/104 124/133/104 44/44/104
f 128/137/105 51/51/105 42/42/105 123/132/105
f 128/137/106 129/138/106 126/135/106 124/133/106
f 129/138/107 128/137/107 123/132/107 122/131/107
f 130/139/108 129/138/108 122/131/108 121/130/108
f 112/121/109 131/140/109 130/139/109 121/130/109
f 90/141/110 132/142/110 133/143/110 91/144/110
f 91/144/111 133/143/111 134/145/111 93/146/111
f 93/146/112 134/145/112 135/147/112 95/148/112
f 95/148/113 135/147/113 136/149/113 99/150/113
f 99/150/114 136/149/114 137/151/114 101/152/114
f 132/142/115 90/141/115 104/153/115 138/154/115
f 106/155/116 139/156/116 138/154/116 104/153/116
f 106/155/117 101/152/117 137/151/117 139/156/117
f 132/142/118 138/154/118 140/157/118 141/158/118
f 139/156/119 142/159/119 140/157/119 138/154/119
f 142/159/120 139/156/120 137/151/120 143/160/120
f 136/149/121 144/161/121 143/160/121 137/151/121
f 135/147/122 145/162/122 144/161/122 136/149/122
f 134/145/123 146/163/123 145/162/123 135/147/123
f 133/143/124 147/164/124 146/163/124 134/145/124
f 132/142/125 141/158/125 147/164/125 133/143/125
f 148/165/126 149/166/126 150/167/126 151/168/126
f 149/166/127 148/165/127 152/169/127 153/170/127
f 154/171/128 153/170/128 152/169/128 155/172/128
f 156/173/129 150/167/129 149/166/129 157/174/129
f 158/175/130 151/168/130 150/167/130 156/173/130
f 148/165/131 151/168/131 158/175/131 159/176/131
f 160/177/132 152/169/132 148/165/132 159/176/132
f 161/178/133 155/172/133 152/169/133 160/177/133
f 162/179/134 154/171/134 155/172/134 161/178/134
f 163/180/135 153/170/135 154/171/135 162/179/135
f 157/174/136 149/166/136 153/170/136 163/180/136
f 141/158/137 157/174/137 163/180/137 147/164/137
f 146/163/138 147/164/138 163/180/138 162/179/138
f 145/162/139 146/163/139 162/179/139 161/178/139
f 144/161/140 145/162/140 161/178/140 160/177/140
f 143/160/141 144/161/141 160/177/141 159/176/141
f 142/159/142 143/160/142 159/176/142 158/175/142
f 140/157/143 142/159/143 158/175/143 156/173/143
f 141/158/144 140/157/144 156/173/144 157/174/144
f 127/136/145 164/181/145 165/182/145 125/134/145
f 45/45/146 125/134/146 165/182/146 166/183/146
f 46/46/147 45/45/147 166/183/147 167/184/147
f 50/50/148 49/49/148 168/185/148 169/186/148
f 170/187/149 126/135/149 129/138/149 130/139/149
f 170/187/150 171/188/150 127/136/150 126/135/150
f 171/188/151 172/189/151 164/181/151 127/136/151
f 52/52/152 43/43/152 48/48/152 56/56/152
f 49/49/153 48/48/153 43/43/153 46/46/153
f 168/185/154 49/49/154 46/46/154 167/184/154
f 170/187/155 130/139/155 131/140/155 173/190/155
f 47/47/156 55/55/156 56/56/156 48/48/156
f 47/191/157 50/192/157 174/193/157 53/194/157
f 171/195/158 170/196/158 173/197/158 175/198/158
f 172/199/159 171/200/159 175/201/159 176/202/159
f 50/203/160 169/204/160 177/205/160 174/206/160
f 108/116/161 107/115/161 110/118/161 109/117/161
f 27/27/162 26/26/162 30/207/162 178/208/162
